<svg width="847" height="600" xmlns="http://www.w3.org/2000/svg" version="1.1"><g><g class="x axis" transform="translate(0,580)" style="stroke-width: 1px; font-size: 10px; font-family: Arial, Helvetica;"><g class="tick" transform="translate(0,0)" style="opacity: 1;"><line y2="-580" x2="0" style="shape-rendering: crispEdges; fill: none; stroke: rgb(204, 204, 204);"></line><text dy=".71em" y="3" x="0" style="text-anchor: middle;">2,006</text></g><g class="tick" transform="translate(84.7,0)" style="opacity: 1;"><line y2="-580" x2="0" style="shape-rendering: crispEdges; fill: none; stroke: rgb(204, 204, 204);"></line><text dy=".71em" y="3" x="0" style="text-anchor: middle;">2,007</text></g><g class="tick" transform="translate(169.4,0)" style="opacity: 1;"><line y2="-580" x2="0" style="shape-rendering: crispEdges; fill: none; stroke: rgb(204, 204, 204);"></line><text dy=".71em" y="3" x="0" style="text-anchor: middle;">2,008</text></g><g class="tick" transform="translate(254.1,0)" style="opacity: 1;"><line y2="-580" x2="0" style="shape-rendering: crispEdges; fill: none; stroke: rgb(204, 204, 204);"></line><text dy=".71em" y="3" x="0" style="text-anchor: middle;">2,009</text></g><g class="tick" transform="translate(338.8,0)" style="opacity: 1;"><line y2="-580" x2="0" style="shape-rendering: crispEdges; fill: none; stroke: rgb(204, 204, 204);"></line><text dy=".71em" y="3" x="0" style="text-anchor: middle;">2,010</text></g><g class="tick" transform="translate(423.5,0)" style="opacity: 1;"><line y2="-580" x2="0" style="shape-rendering: crispEdges; fill: none; stroke: rgb(204, 204, 204);"></line><text dy=".71em" y="3" x="0" style="text-anchor: middle;">2,011</text></g><g class="tick" transform="translate(508.2,0)" style="opacity: 1;"><line y2="-580" x2="0" style="shape-rendering: crispEdges; fill: none; stroke: rgb(204, 204, 204);"></line><text dy=".71em" y="3" x="0" style="text-anchor: middle;">2,012</text></g><g class="tick" transform="translate(592.9,0)" style="opacity: 1;"><line y2="-580" x2="0" style="shape-rendering: crispEdges; fill: none; stroke: rgb(204, 204, 204);"></line><text dy=".71em" y="3" x="0" style="text-anchor: middle;">2,013</text></g><g class="tick" transform="translate(677.6,0)" style="opacity: 1;"><line y2="-580" x2="0" style="shape-rendering: crispEdges; fill: none; stroke: rgb(204, 204, 204);"></line><text dy=".71em" y="3" x="0" style="text-anchor: middle;">2,014</text></g><g class="tick" transform="translate(762.3000000000001,0)" style="opacity: 1;"><line y2="-580" x2="0" style="shape-rendering: crispEdges; fill: none; stroke: rgb(204, 204, 204);"></line><text dy=".71em" y="3" x="0" style="text-anchor: middle;">2,015</text></g><g class="tick" transform="translate(847,0)" style="opacity: 1;"><line y2="-580" x2="0" style="shape-rendering: crispEdges; fill: none; stroke: rgb(204, 204, 204);"></line><text dy=".71em" y="3" x="0" style="text-anchor: middle;">2,016</text></g><path class="domain" d="M0,-580V0H847V-580" style="shape-rendering: crispEdges; fill: none; stroke: rgb(204, 204, 204);"></path></g><path class="layer" d="M0,330.69113018L169.4,344.36723032000003L423.5,370.32815588999995L762.3000000000001,574.87812817L847,580L847,580L762.3000000000001,579.99991329L423.5,579.99999971L169.4,580L0,580Z" title="MMD" style="fill: rgb(23, 190, 207);"></path><path class="layer" d="M0,183.84382321999996L169.4,228.57191174000002L423.5,262.76910179L762.3000000000001,301.35818785L847,303.73339369999997L847,580L762.3000000000001,574.87812817L423.5,370.32815588999995L169.4,344.36723032000003L0,330.69113018Z" title="UPND" style="fill: rgb(255, 127, 14);"></path><path class="layer" d="M0,13.506772039999966L169.4,4.488233720000007L423.5,14.234786009999997L762.3000000000001,18.106890949999944L847,11.689737599999976L847,303.73339369999997L762.3000000000001,301.35818785L423.5,262.76910179L169.4,228.57191174000002L0,183.84382321999996Z" title="VPF" style="fill: rgb(31, 119, 180);"></path><path class="layer" d="M0,0L169.4,0L423.5,2.900000239947076e-7L762.3000000000001,0.0000867099999624088L847,0L847,11.689737599999976L762.3000000000001,18.106890949999944L423.5,14.234786009999997L169.4,4.488233720000007L0,13.506772039999966Z" title="other" style="fill: rgb(127, 127, 127);"></path><defs><path id="path-0" d="M0,455.34556509000004L169.4,462.18361516000004L423.5,475.1640778L762.3000000000001,577.43902073L847,580"></path><path id="path-1" d="M0,257.2674767L169.4,286.46957103L423.5,316.54862884L762.3000000000001,438.11815801L847,441.86669685"></path><path id="path-2" d="M0,98.67529762999996L169.4,116.53007273000001L423.5,138.5019439L762.3000000000001,159.73253939999995L847,157.71156564999998"></path><path id="path-3" d="M0,6.753386019999983L169.4,2.2441168600000037L423.5,7.1173931500000105L762.3000000000001,9.053488829999953L847,5.844868799999988"></path></defs><text dy="0.5ex" class="label"><textPath xmlns:xlink="http://www.w3.org/1999/xlink" xlink:href="#path-0" startOffset="5%" text-anchor="start" style="font-size: 11px; font-family: Arial, Helvetica; font-weight: normal;">MMD</textPath></text><text dy="0.5ex" class="label"><textPath xmlns:xlink="http://www.w3.org/1999/xlink" xlink:href="#path-1" startOffset="95%" text-anchor="end" style="font-size: 11px; font-family: Arial, Helvetica; font-weight: normal;">UPND</textPath></text><text dy="0.5ex" class="label"><textPath xmlns:xlink="http://www.w3.org/1999/xlink" xlink:href="#path-2" startOffset="95%" text-anchor="end" style="font-size: 11px; font-family: Arial, Helvetica; font-weight: normal;">VPF</textPath></text><text dy="0.5ex" class="label"><textPath xmlns:xlink="http://www.w3.org/1999/xlink" xlink:href="#path-3" startOffset="90%" text-anchor="middle" style="font-size: 11px; font-family: Arial, Helvetica; font-weight: normal;">other</textPath></text></g></svg>